# xmcd
#
# Track frame offsets:
#	150
#	16188
#	30933
#	42577
#	56460
#	75346
#	93454
#	106100
#	124783
#	142502
#	149365
#	167731
#	179848
#	194904
#
# Disc length: 2792 seconds
#
# Revision: 1
# Processed by: cddbd v1.5.2PL0 Copyright (c) Steve Scherf et al.
# Submitted via: audiograbber 1.83.01
#
DISCID=b50ae60e
DTITLE=Dávila 666 - Dávila 666
DYEAR=2008
DGENRE=garage rock
TTITLE0=El Lobo
TTITLE1=Basura
TTITLE2=Bla Bla Bla
TTITLE3=Dímelo Ya
TTITLE4=Tú
TTITLE5=Oh Baby
TTITLE6=Muy Chistoso
TTITLE7=Callejón
TTITLE8=Ciudad
TTITLE9=Quizás
TTITLE10=No Puedo Ver
TTITLE11=No Quiero
TTITLE12=9:36 (Puto)
TTITLE13=Nueva Localización
EXTD=
EXTT0=
EXTT1=
EXTT2=
EXTT3=
EXTT4=
EXTT5=
EXTT6=
EXTT7=
EXTT8=
EXTT9=
EXTT10=
EXTT11=
EXTT12=
EXTT13=
PLAYORDER=
